<svg xmlns="http://www.w3.org/2000/svg" width="30" height="23" viewBox="0 0 30 23">
  <defs>
    <linearGradient id="logo-a" x1="50.001%" x2="50.001%" y1="-.002%" y2="100.001%">
      <stop offset="0%" stop-color="#FFC400"/>
      <stop offset="100%" stop-color="#FFF"/>
    </linearGradient>
  </defs>
  <g fill="none">
   	<path fill="url(#logo-a)" d="M6.32761905,0 C5.93933333,0.0170434783 5.45757143,0.253217391 5.22148413,0.542956522 L5.22148413,0.542956522 L0.366714286,6.46921739 C0.128230159,6.76017391 0.00479365079,7.15095652 0,7.54417391 L0,7.54417391 L0,7.59165217 C0.00479365079,7.97513043 0.123436508,8.3586087 0.357126984,8.652 L0.357126984,8.652 L14.2695,26.1154783 C14.9957381,27.026087 16.177373,27.0285217 16.9060079,26.1154783 L16.9060079,26.1154783 L30.818381,8.652 C31.2965476,8.0506087 31.297746,7.06695652 30.8087937,6.46921739 L30.8087937,6.46921739 L25.9540238,0.542956522 C25.7227302,0.26173913 25.231381,0.0182608696 24.8466905,0 L24.8466905,0 L6.32761905,0 Z"/>
  </g>
</svg>
